PathFileType	4	(X/Y/Z)	C:\Users\Basilio\Documents\Thesis Gigler\squatting_fais\c3dfiles\075\SJ_pre5\markers_experimental.trc
DataRate	CameraRate	NumFrames	NumMarkers	Units	OrigDataRate	OrigDataStartFrame	OrigNumFrames
200.000000	200.000000	4	61	mm	200.000000	551	1470
Frame#	Time	FHD			LBHD			RBHD			C7			T10			CLAV			LSHO			LUUPA			LMUPA			LDUPA			LLEP			LMEP			LRAD			LUL			LRFIN			RSHO			RUPA1			RMUPA			RDUPA			RLEP			RMEP			RRAD			RUL			RUFIN			LASI			RASI			USACR			LSACR			RSACR			LTHI1			LTHI2			LTHI3			LTHI4			LLFC			LMFC			LTIB1			LTIB2			LTIB3			LTIB4			LLMAL			LMMAL			LHEE			LMT1			LMT2			LMT5			RTHI			RTHI2			RTHI3			RTHI4			RLFC			RMFC			RTIB1			RTIB2			RTIB3			RTIB4			RLMAL			RMMAL			RHEE			RMT1			RMT2			RMT5			
		X1	Y1	Z1	X2	Y2	Z2	X3	Y3	Z3	X4	Y4	Z4	X5	Y5	Z5	X6	Y6	Z6	X7	Y7	Z7	X8	Y8	Z8	X9	Y9	Z9	X10	Y10	Z10	X11	Y11	Z11	X12	Y12	Z12	X13	Y13	Z13	X14	Y14	Z14	X15	Y15	Z15	X16	Y16	Z16	X17	Y17	Z17	X18	Y18	Z18	X19	Y19	Z19	X20	Y20	Z20	X21	Y21	Z21	X22	Y22	Z22	X23	Y23	Z23	X24	Y24	Z24	X25	Y25	Z25	X26	Y26	Z26	X27	Y27	Z27	X28	Y28	Z28	X29	Y29	Z29	X30	Y30	Z30	X31	Y31	Z31	X32	Y32	Z32	X33	Y33	Z33	X34	Y34	Z34	X35	Y35	Z35	X36	Y36	Z36	X37	Y37	Z37	X38	Y38	Z38	X39	Y39	Z39	X40	Y40	Z40	X41	Y41	Z41	X42	Y42	Z42	X43	Y43	Z43	X44	Y44	Z44	X45	Y45	Z45	X46	Y46	Z46	X47	Y47	Z47	X48	Y48	Z48	X49	Y49	Z49	X50	Y50	Z50	X51	Y51	Z51	X52	Y52	Z52	X53	Y53	Z53	X54	Y54	Z54	X55	Y55	Z55	X56	Y56	Z56	X57	Y57	Z57	X58	Y58	Z58	X59	Y59	Z59	X60	Y60	Z60	X61	Y61	Z61	

552	2.755	-8.815698623657228	1372.19677734375	-886.2222900390627	-172.8437652587891	1279.78173828125	-956.1524658203127	-126.4982986450196	1302.9130859375	-803.1408691406252	-234.9438476562501	1201.3232421875	-901.8804931640627	-419.6736755371095	941.8737792968752	-900.9194335937502	-131.1161651611328	1081.65576171875	-899.8300781250002	-139.6948699951172	1133.579833984375	-1053.222045898438	-220.0552062988282	1018.305114746094	-1229.9892578125	-214.9161224365235	971.0924072265627	-1213.697143554688	-243.3822326660157	962.9113769531252	-1267.30712890625	-282.2641601562501	886.5328369140627	-1290.610229492188	-360.9819946289063	925.664001464844	-1264.837768554688	-402.100067138672	743.8599853515626	-1123.948852539063	-363.3922119140626	687.0914306640626	-1157.45751953125	-366.2070312500001	738.8737182617189	-1072.73681640625	-147.6406402587891	1131.973510742188	-744.5264282226564	-247.6951293945313	1032.226440429688	-578.9792480468751	-245.3762969970704	982.2647094726565	-585.4126586914064	-282.3847656250001	985.938171386719	-537.4915771484376	-317.5764770507813	926.6672973632815	-510.2446899414064	-398.9277343750001	943.8621215820315	-532.3180541992189	-398.9285583496095	751.6557006835939	-690.5092773437501	-357.8052368164063	707.3190307617189	-644.1952514648439	-349.6064758300782	746.1983032226564	-738.7456665039064	-361.0995483398438	728.7285766601564	-1028.573120117188	-350.8059692382813	733.8011474609376	-778.6838378906252	-476.7787170410157	852.5346679687502	-902.0391845703127	-500.8179321289064	828.9114379882815	-928.3940429687502	-498.8643798828126	829.797546386719	-870.471618652344	-355.8397216796876	600.3517456054689	-1129.932373046875	-280.2009582519532	567.2548828125001	-1144.619873046875	-249.5383300781251	597.2112426757814	-1119.266967773438	-263.7118835449219	509.670623779297	-1153.774047851563	-204.8391723632813	429.2575073242189	-1151.18505859375	-159.8628540039063	416.4436950683595	-1033.443115234375	-168.2672882080078	301.3087158203126	-1118.277587890625	-243.6491851806641	283.9376831054688	-1164.085327148438	-208.6878051757813	265.5678405761719	-1144.324462890625	-243.4680786132813	197.2315368652344	-1111.215942382813	-369.8643188476563	92.49025726318361	-1120.362182617188	-329.6492919921876	100.2835922241211	-1039.197631835938	-422.599334716797	49.41551208496095	-1067.740600585938	-210.6544342041016	52.67549133300783	-1081.734985351563	-217.0767364501954	58.56153488159181	-1129.994506835938	-262.9293823242188	41.48794555664063	-1176.736450195313	-389.5231323242189	620.3121948242189	-683.3399047851564	-324.9249877929688	609.9833984375001	-677.7718505859376	-305.8550415039063	634.7012939453126	-693.3540039062501	-287.2346801757813	536.1231689453126	-666.3999023437501	-199.8581085205079	423.9603271484376	-685.9243164062501	-160.3202209472657	419.7574157714845	-797.416198730469	-183.0021514892578	280.6456298828126	-745.3015136718751	-265.6186828613282	229.4486083984376	-693.2335205078126	-234.4754486083985	213.5686035156251	-724.7752075195314	-257.6505126953126	177.5596008300782	-765.3250122070314	-369.8710021972657	89.55142974853517	-734.7086791992189	-329.3650817871094	107.0018081665039	-814.8565673828127	-421.725067138672	51.18891906738283	-793.156188964844	-212.0215759277344	60.10959243774415	-764.8488769531251	-220.5465393066407	59.32207489013673	-723.6531982421876	-261.5517578125001	33.46165084838868	-677.7252807617189	
553	2.76	-7.787166118621828	1368.879638671875	-886.2253417968752	-171.8988647460938	1276.618408203125	-956.3283691406252	-125.2111968994141	1300.207153320313	-802.8198852539065	-234.0768127441407	1198.438598632813	-901.9929199218752	-419.5776672363282	939.497741699219	-901.0961914062502	-130.40966796875	1078.54150390625	-899.8342895507815	-139.4066009521485	1130.725952148438	-1053.63330078125	-219.5786590576172	1015.7314453125	-1230.311767578125	-214.1804199218751	968.299987792969	-1213.808959960938	-242.9496765136719	960.500915527344	-1267.8369140625	-282.0184020996094	884.2539672851565	-1290.878784179688	-360.4797363281251	923.771423339844	-1265.221313476563	-402.6726684570314	742.1738891601564	-1124.096313476563	-364.0684509277344	685.2495727539064	-1157.57861328125	-366.9272460937501	737.1890869140626	-1072.884033203125	-146.9054870605469	1128.96484375	-744.6287841796876	-247.0996398925782	1029.8876953125	-579.0358276367189	-245.0023193359376	979.8880004882815	-585.4401855468751	-282.1542663574219	983.5832519531252	-537.6776123046876	-317.3712463378907	924.4732055664065	-510.1218872070314	-398.704803466797	941.9422607421877	-532.3413085937501	-400.200653076172	749.5531005859376	-690.6440429687501	-357.7598876953126	705.6863403320314	-643.8428955078126	-350.7533569335938	743.9312133789064	-739.0119628906251	-362.7311706542969	727.1137695312501	-1028.822509765625	-351.1838073730469	731.5982666015626	-778.6361083984377	-477.7346801757814	850.1250000000002	-901.9443969726565	-500.8826599121095	826.6451416015627	-928.5894165039065	-499.0609741210939	827.7800292968752	-870.4029541015627	-356.3554382324219	599.2596435546876	-1130.146240234375	-280.5814208984376	566.4370727539064	-1144.716552734375	-249.8492126464844	596.4394531250001	-1119.283569335938	-263.4461364746094	508.9161682128907	-1153.859619140625	-204.1679687500001	428.7828674316407	-1151.325073242188	-159.3194732666016	415.7760620117189	-1033.272827148438	-167.5665893554688	300.9095458984376	-1118.183959960938	-243.1071777343751	283.8811645507813	-1164.090209960938	-208.1975860595704	265.3671264648438	-1144.262817382813	-243.2548522949219	196.9898376464844	-1111.194946289063	-369.7302551269532	92.43039703369142	-1120.352416992188	-329.5494079589844	100.2912750244141	-1039.132446289063	-422.5506286621095	49.44429016113283	-1067.720581054688	-210.5475616455079	52.67864227294923	-1081.792358398438	-217.2450408935547	58.62622070312501	-1130.163696289063	-262.7519836425782	41.39905548095704	-1176.809326171875	-389.8718261718751	618.9254150390626	-683.3238525390626	-325.2716369628907	608.9900512695314	-677.7911987304689	-306.2947692871094	633.7467041015626	-693.5140380859376	-287.2452697753907	535.0500488281251	-666.4747924804689	-199.2084197998047	423.6409301757814	-685.8471679687501	-159.689453125	419.3132629394532	-797.3598632812502	-182.4657897949219	280.3674621582032	-745.2996826171876	-265.2173156738282	229.2776336669922	-693.1746215820314	-234.141342163086	213.3884887695313	-724.8016967773439	-257.5317687988282	177.3635711669922	-765.4514160156251	-369.8303833007813	89.5889129638672	-734.8082885742189	-329.1906738281251	107.0692749023438	-814.9368896484377	-421.7232666015626	51.22943496704103	-793.2265625000002	-212.0255737304688	60.08546447753908	-764.8589477539064	-220.4918365478516	59.28148651123048	-723.6798706054689	-261.5919189453126	33.42799377441407	-677.7528686523439	
554	2.765	-6.688212871551515	1365.539306640625	-886.3330078125002	-170.9863433837891	1273.668334960938	-956.4187011718752	-124.7542572021485	1296.811279296875	-803.2666625976565	-233.1386718750001	1195.7646484375	-902.046569824219	-419.5209960937501	937.3178710937502	-901.1726074218752	-129.7962951660157	1075.47314453125	-899.9148559570315	-138.4439392089844	1127.838500976563	-1053.729370117188	-219.0535888671876	1013.187072753906	-1230.600341796875	-213.8674011230469	965.719909667969	-1214.008911132813	-242.2393341064454	957.831481933594	-1267.796508789063	-281.6919250488282	881.743591308594	-1290.893432617188	-360.2149658203126	921.659851074219	-1265.464111328125	-403.4020996093751	740.2000122070314	-1124.2666015625	-364.4733581542969	683.2128906250001	-1157.375	-367.4151611328126	735.5472412109376	-1072.85009765625	-146.2072906494141	1126.0087890625	-744.6928710937501	-246.5608978271485	1027.513916015625	-579.1210937500001	-244.6118927001954	977.4854125976565	-585.4350585937501	-281.7104187011719	981.2597656250002	-537.6077270507814	-317.1757507324219	922.4117431640627	-510.1228637695314	-398.3545227050782	940.1853637695315	-532.1292724609376	-400.0752563476564	748.1525878906251	-690.7258300781251	-358.6322021484376	703.5321044921876	-644.4636230468751	-350.8861999511719	742.4612426757814	-738.9886474609376	-361.8810729980469	724.4581298828126	-1028.782104492188	-352.5578918457032	729.3612670898439	-778.3842773437502	-477.3310852050782	848.1643676757815	-902.2069091796877	-501.5464477539064	824.7379150390627	-928.4297485351565	-499.2337951660157	825.716003417969	-870.4421997070315	-356.6592407226563	597.8855590820314	-1130.111328125	-280.7716979980469	565.5952148437501	-1144.692016601563	-250.0317535400391	595.5812377929689	-1119.035522460938	-263.3672790527344	508.0019836425782	-1154.051391601563	-203.573715209961	428.454071044922	-1151.503051757813	-158.5729522705078	416.5023498535157	-1033.570068359375	-167.0678863525391	300.5982360839844	-1118.467651367188	-242.6427001953126	283.5224304199219	-1164.087036132813	-207.8515930175782	265.1461486816407	-1144.241943359375	-242.8381805419922	196.6777954101563	-1111.18701171875	-369.7333679199219	92.4578094482422	-1120.351196289063	-329.5252380371094	100.2730789184571	-1039.107543945313	-422.5716857910157	49.46991348266603	-1067.663696289063	-210.4830474853516	52.67295455932619	-1081.776733398438	-217.1158294677735	58.6310501098633	-1130.090942382813	-262.9042358398438	41.46813201904298	-1176.797973632813	-390.2254943847657	617.5729980468751	-683.4873046875001	-325.6707153320313	607.7083740234376	-677.9256591796876	-306.8282775878907	632.5658569335939	-693.8003540039064	-287.0673828125001	534.2114257812501	-666.4963378906251	-198.6266174316407	423.315155029297	-685.7551269531251	-159.1482696533203	418.8950500488282	-797.3713378906252	-182.0660552978516	280.0801391601563	-745.4068603515626	-264.8964538574219	229.1397857666016	-693.2250366210939	-233.8787078857422	213.1574707031251	-724.8653564453126	-257.2274475097657	177.2094268798828	-765.5823364257814	-369.7427062988282	89.5991668701172	-734.8809204101564	-329.1037902832032	106.8970947265625	-814.9095458984377	-421.6851501464845	51.27851867675783	-793.3086547851565	-211.9657897949219	60.03985977172853	-764.9049682617189	-220.4383392333985	59.24781036376955	-723.7687377929689	-261.5768432617188	33.46435928344727	-677.7591552734376	
555	2.77	-5.582526683807374	1362.336303710938	-886.4143676757815	-169.9846954345703	1270.336059570313	-956.4130859375002	-123.7431793212891	1293.679443359375	-803.3784179687502	-232.3640441894532	1192.783447265625	-902.1980590820315	-419.3132934570314	935.047058105469	-901.2329101562502	-129.0546112060547	1072.432983398438	-899.970153808594	-137.1940612792969	1124.705932617188	-1053.462890625	-218.1259765625001	1010.561584472656	-1230.724365234375	-213.3982086181641	963.1867675781252	-1214.206909179688	-242.0760650634766	955.4147949218752	-1267.919067382813	-281.7067260742188	879.3799438476565	-1291.207763671875	-359.9668884277344	919.5672607421877	-1265.66455078125	-403.8939514160157	738.4430541992189	-1124.341186523438	-365.3430786132813	681.5158081054689	-1157.512939453125	-367.6808166503907	733.9277954101564	-1072.74560546875	-145.4770812988282	1123.092407226563	-744.8143310546876	-246.078109741211	1025.026611328125	-579.2039794921876	-244.1918945312501	975.0550537109377	-585.4238281250001	-281.4370727539063	979.198913574219	-537.7320556640626	-316.8826904296876	920.2811279296877	-509.9999084472657	-398.1975708007814	938.226745605469	-532.0413818359376	-400.2902221679689	746.3586425781251	-690.7426147460939	-358.8032226562501	701.9041748046876	-644.4050903320314	-351.4768676757813	740.6475219726564	-739.1772460937501	-362.4783325195313	722.2919311523439	-1029.084716796875	-352.8349304199219	727.1952514648439	-778.2331542968752	-478.0499572753907	845.9663085937502	-901.9624023437502	-501.3824157714845	822.4283447265627	-928.563415527344	-499.7690734863282	823.6421508789065	-870.477478027344	-356.8238220214844	596.5399780273439	-1130.177734375	-280.5545959472657	564.7318725585939	-1144.664672851563	-250.2433624267579	594.8689575195314	-1118.922119140625	-262.9620971679688	507.2894592285157	-1154.128662109375	-202.9552764892579	428.1039428710939	-1151.699584960938	-158.0111236572266	416.0398864746095	-1033.575439453125	-166.4256286621094	300.2348632812501	-1118.41748046875	-242.2323608398438	283.2445678710938	-1164.080444335938	-207.6246643066407	264.5704345703126	-1144.349365234375	-242.5529479980469	196.3935546875001	-1111.215454101563	-369.6983642578126	92.3707962036133	-1120.329223632813	-329.3832702636719	100.2669372558594	-1039.088989257813	-422.5328063964845	49.40529251098634	-1067.590576171875	-210.6059570312501	52.70967483520509	-1081.883056640625	-217.2678527832032	58.66708374023439	-1130.200561523438	-262.9759521484376	41.45558547973634	-1176.766723632813	-390.5700073242189	616.1093750000001	-683.4409179687501	-325.8920593261719	606.6438598632814	-678.0670166015626	-307.3821105957032	631.5619506835939	-693.9020385742189	-287.5522460937501	532.8857421875001	-666.6390380859376	-198.0869598388672	422.9356689453126	-685.6848144531251	-158.3695678710938	418.4913635253907	-797.5338134765627	-181.6263580322266	279.8775939941407	-745.3504028320314	-264.6069030761719	228.9282684326172	-693.3176879882814	-233.6587066650391	213.0555877685547	-724.9770507812501	-257.1609497070313	176.9698028564453	-765.6950683593751	-369.6535339355469	89.63292694091798	-734.9342651367189	-328.9941406250001	106.9860000610352	-815.0051269531252	-421.5797424316407	51.27576446533205	-793.3811035156252	-211.9003601074219	60.01411819458009	-764.8651123046876	-220.3319702148438	59.2741050720215	-723.7371826171876	-261.5971069335938	33.4464454650879	-677.7395019531251	
